# xmcd
#
# Track frame offsets:
#	150
#	16981
#	39080
#	56163
#	75744
#	89391
#	106431
#	119312
#	134639
#	152562
#	168532
#
# Disc length: 2488 seconds
#
# Revision: 0
# Processed by: cddbd v1.5.2PL0 Copyright (c) Steve Scherf et al.
# Submitted via: audiograbber 1.83.01
#
DISCID=8909b60b
DTITLE=Emily Barker and The Red Clay Halo - Almanac
DYEAR=2011
DGENRE=Folk
TTITLE0=Billowing Sea
TTITLE1=Reckless
TTITLE2=Ropes
TTITLE3=Little Deaths
TTITLE4=Dancers
TTITLE5=Pause
TTITLE6=Openings
TTITLE7=Calendar
TTITLE8=Light
TTITLE9=Witch of Pittenweem
TTITLE10=Bones
EXTD=
EXTT0=
EXTT1=
EXTT2=
EXTT3=
EXTT4=
EXTT5=
EXTT6=
EXTT7=
EXTT8=
EXTT9=
EXTT10=
PLAYORDER=
